<?xml version="1.0" standalone="no"?><!DOCTYPE svg PUBLIC "-//W3C//DTD SVG 1.1//EN" "http://www.w3.org/Graphics/SVG/1.1/DTD/svg11.dtd"><svg height="48" node-id="1" sillyvg="true" template-height="48" template-width="48" version="1.1" viewBox="0 0 48 48" width="48" xmlns="http://www.w3.org/2000/svg" xmlns:xlink="http://www.w3.org/1999/xlink"><defs node-id="21"></defs><path d="M 44.00 21.50 C 44.00 32.55 35.05 41.50 24.00 41.50 C 12.95 41.50 4.00 32.55 4.00 21.50 C 4.00 10.45 12.95 1.50 24.00 1.50 C 35.05 1.50 44.00 10.45 44.00 21.50 Z" fill="#ffe500" fill-rule="nonzero" id="_Ellipse_" node-id="8" stroke="none" target-height="40" target-width="40" target-x="4" target-y="1.5"></path><path d="M 24.00 1.50 C 12.95 1.50 4.00 10.45 4.00 21.50 C 4.00 32.55 12.95 41.50 24.00 41.50 C 35.05 41.50 44.00 32.55 44.00 21.50 C 44.00 10.45 35.05 1.50 24.00 1.50 Z M 24.00 38.50 C 13.92 38.50 5.75 30.33 5.75 20.25 C 5.75 10.17 13.92 2.00 24.00 2.00 C 34.08 2.00 42.25 10.17 42.25 20.25 C 42.25 30.33 34.08 38.50 24.00 38.50 Z" fill="#ebcb00" fill-rule="nonzero" id="_Compound_Path_" node-id="9" stroke="none" target-height="40" target-width="40" target-x="4" target-y="1.5"></path><path d="M 30.00 5.50 C 30.00 6.33 27.31 7.00 24.00 7.00 C 20.69 7.00 18.00 6.33 18.00 5.50 C 18.00 4.67 20.69 4.00 24.00 4.00 C 27.31 4.00 30.00 4.67 30.00 5.50 Z" fill="#fff48c" fill-rule="nonzero" id="_Ellipse_2" node-id="10" stroke="none" target-height="3" target-width="12" target-x="18" target-y="4"></path><path d="M 44.00 21.50 C 44.00 32.55 35.05 41.50 24.00 41.50 C 12.95 41.50 4.00 32.55 4.00 21.50 C 4.00 10.45 12.95 1.50 24.00 1.50 C 35.05 1.50 44.00 10.45 44.00 21.50 Z" fill="none" id="_Ellipse_3" node-id="11" stroke="#45413c" stroke-linecap="round" stroke-width="1" target-height="40" target-width="40" target-x="4" target-y="1.5"></path><path d="M 19.00 31.50 C 22.03 29.48 25.97 29.48 29.00 31.50" fill="none" id="_Path_" node-id="12" stroke="#45413c" stroke-linecap="round" stroke-width="1" target-height="2.0222473" target-width="10" target-x="19" target-y="29.477753"></path><g node-id="23"><path d="M 40.00 45.50 C 40.00 46.33 32.84 47.00 24.00 47.00 C 15.16 47.00 8.00 46.33 8.00 45.50 C 8.00 44.67 15.16 44.00 24.00 44.00 C 32.84 44.00 40.00 44.67 40.00 45.50 Z" fill="#45413c" fill-opacity="0.15" fill-rule="nonzero" group-id="1" id="_Ellipse_4" node-id="13" stroke="none" target-height="3" target-width="32" target-x="8" target-y="44"></path></g><path d="M 15.00 21.50 C 15.00 22.05 14.55 22.50 14.00 22.50 C 13.45 22.50 13.00 22.05 13.00 21.50 C 13.00 20.95 13.45 20.50 14.00 20.50 C 14.55 20.50 15.00 20.95 15.00 21.50 Z" fill="#45413c" fill-rule="nonzero" id="_Path_2" node-id="14" stroke="#45413c" stroke-linecap="round" stroke-width="1" target-height="2" target-width="2" target-x="13" target-y="20.5"></path><path d="M 34.50 21.50 C 34.50 22.05 34.05 22.50 33.50 22.50 C 32.95 22.50 32.50 22.05 32.50 21.50 C 32.50 20.95 32.95 20.50 33.50 20.50 C 34.05 20.50 34.50 20.95 34.50 21.50 Z" fill="#45413c" fill-rule="nonzero" id="_Path_3" node-id="15" stroke="#45413c" stroke-linecap="round" stroke-width="1" target-height="2" target-width="2" target-x="32.5" target-y="20.5"></path><path d="M 13.00 17.16 C 14.17 16.97 15.31 16.60 16.37 16.06 C 17.43 15.53 18.41 14.84 19.25 14.00" fill="none" id="_Path_4" node-id="16" stroke="#45413c" stroke-linecap="round" stroke-width="1" target-height="3.1599998" target-width="6.25" target-x="13" target-y="14"></path><path d="M 34.75 17.16 C 32.39 16.77 30.21 15.67 28.50 14.00" fill="none" id="_Path_5" node-id="17" stroke="#45413c" stroke-linecap="round" stroke-width="1" target-height="3.1599998" target-width="6.25" target-x="28.5" target-y="14"></path><path d="M 38.50 26.50 C 38.50 27.33 37.38 28.00 36.00 28.00 C 34.62 28.00 33.50 27.33 33.50 26.50 C 33.50 25.67 34.62 25.00 36.00 25.00 C 37.38 25.00 38.50 25.67 38.50 26.50 Z" fill="#ffaa54" fill-rule="nonzero" id="_Path_6" node-id="18" stroke="none" target-height="3" target-width="5" target-x="33.5" target-y="25"></path><path d="M 9.50 26.50 C 9.50 27.33 10.62 28.00 12.00 28.00 C 13.38 28.00 14.50 27.33 14.50 26.50 C 14.50 25.67 13.38 25.00 12.00 25.00 C 10.62 25.00 9.50 25.67 9.50 26.50 Z" fill="#ffaa54" fill-rule="nonzero" id="_Path_7" node-id="19" stroke="none" target-height="3" target-width="5" target-x="9.5" target-y="25"></path></svg>